<svg width="80" height="17" viewBox="0 0 80 17" fill="none" xmlns="http://www.w3.org/2000/svg">
<path fill-rule="evenodd" clip-rule="evenodd" d="M7.178 5.24604H4.733V3.56504C4.70065 3.36785 4.75815 3.16653 4.88974 3.01616C5.02134 2.86579 5.21327 2.78212 5.413 2.78804H7.138V0.0130363L4.762 0.00403633C3.86233 -0.0419302 2.98731 0.306488 2.36548 0.958286C1.74365 1.61008 1.43677 2.50053 1.525 3.39704V5.24604H0V8.10404H1.525V16.195H4.733V8.10604H6.897L7.178 5.24604Z" fill="#E6DFD9"/>
<path d="M20.79 12.44C21.098 12.44 21.35 12.4167 21.546 12.37C21.7513 12.3233 21.9193 12.2393 22.05 12.118C22.19 11.9873 22.3067 11.8193 22.4 11.614C22.4933 11.3993 22.582 11.124 22.666 10.788L24.29 4.614C24.3553 4.37133 24.402 4.16133 24.43 3.984C24.4673 3.80667 24.486 3.65267 24.486 3.522C24.486 3.214 24.3787 3.01333 24.164 2.92C23.9493 2.82667 23.59 2.78 23.086 2.78L23.24 2.22L30.884 2.22V5.048H30.352C30.2307 4.6 30.0953 4.236 29.946 3.956C29.7967 3.66667 29.624 3.44267 29.428 3.284C29.2413 3.116 29.0267 2.99933 28.784 2.934C28.5507 2.86867 28.2893 2.836 28 2.836L26.18 2.836L25.088 6.994H26.04C26.292 6.994 26.5067 6.97067 26.684 6.924C26.8613 6.87733 27.02 6.798 27.16 6.686C27.3093 6.56467 27.4447 6.40133 27.566 6.196C27.6967 5.99067 27.8367 5.72467 27.986 5.398H28.504L27.524 9.822H26.964C26.992 9.486 27.006 9.19667 27.006 8.954C27.006 8.48733 26.936 8.14667 26.796 7.932C26.656 7.71733 26.3993 7.61 26.026 7.61H24.906L24.108 10.62C24.024 10.928 23.982 11.1893 23.982 11.404C23.982 11.74 24.108 11.992 24.36 12.16C24.612 12.3187 25.0553 12.398 25.69 12.398L25.536 13H20.636L20.79 12.44ZM34.4527 6.168C34.098 6.168 33.7294 6.33133 33.3467 6.658C32.9734 6.98467 32.6327 7.39533 32.3247 7.89C32.0167 8.37533 31.7647 8.90267 31.5687 9.472C31.3727 10.032 31.2747 10.5547 31.2747 11.04C31.2747 11.376 31.3447 11.6467 31.4847 11.852C31.6247 12.048 31.816 12.146 32.0587 12.146C32.2734 12.146 32.4974 12.062 32.7307 11.894C32.964 11.7167 33.188 11.488 33.4027 11.208C33.6267 10.9187 33.8367 10.592 34.0327 10.228C34.2287 9.864 34.4014 9.49067 34.5507 9.108C34.7 8.716 34.8167 8.33333 34.9007 7.96C34.9847 7.58667 35.0267 7.25067 35.0267 6.952C35.0267 6.70933 34.9754 6.518 34.8727 6.378C34.77 6.238 34.63 6.168 34.4527 6.168ZM35.8947 5.58H37.0567L36.2587 7.722C36.128 8.07667 35.9974 8.45467 35.8667 8.856C35.7454 9.25733 35.6334 9.64467 35.5307 10.018C35.4374 10.3913 35.3627 10.732 35.3067 11.04C35.2507 11.348 35.2227 11.5767 35.2227 11.726C35.2227 11.9967 35.3114 12.132 35.4887 12.132C35.6194 12.132 35.806 11.9967 36.0487 11.726C36.3007 11.4553 36.5807 11.1053 36.8887 10.676L37.2527 10.97C36.8607 11.6607 36.436 12.1973 35.9787 12.58C35.5307 12.9533 35.0967 13.14 34.6767 13.14C34.462 13.14 34.294 13.0607 34.1727 12.902C34.0607 12.734 34.0047 12.4633 34.0047 12.09C34.0047 12.006 34.0047 11.908 34.0047 11.796C34.014 11.684 34.028 11.5347 34.0467 11.348L33.9907 11.334C33.8507 11.5953 33.6827 11.838 33.4867 12.062C33.3 12.2767 33.0947 12.468 32.8707 12.636C32.6467 12.7947 32.4134 12.916 32.1707 13C31.928 13.0933 31.69 13.14 31.4567 13.14C30.9807 13.14 30.6074 12.9627 30.3367 12.608C30.0754 12.244 29.9447 11.7447 29.9447 11.11C29.9447 10.466 30.08 9.808 30.3507 9.136C30.6214 8.464 30.9714 7.85733 31.4007 7.316C31.83 6.76533 32.306 6.31733 32.8287 5.972C33.3514 5.61733 33.8647 5.44 34.3687 5.44C34.6767 5.44 34.9287 5.51467 35.1247 5.664C35.3207 5.804 35.4794 6.03733 35.6007 6.364L35.8947 5.58ZM43.0111 10.746C42.6191 11.5207 42.1617 12.1133 41.6391 12.524C41.1257 12.9347 40.5751 13.14 39.9871 13.14C39.3804 13.14 38.8951 12.9347 38.5311 12.524C38.1671 12.104 37.9851 11.5487 37.9851 10.858C37.9851 10.4473 38.0457 10.0273 38.1671 9.598C38.2884 9.16867 38.4517 8.75333 38.6571 8.352C38.8624 7.95067 39.1051 7.57267 39.3851 7.218C39.6651 6.86333 39.9637 6.55533 40.2811 6.294C40.5984 6.03267 40.9251 5.82733 41.2611 5.678C41.6064 5.51933 41.9424 5.44 42.2691 5.44C42.7171 5.44 43.0857 5.56133 43.3751 5.804C43.6644 6.04667 43.8091 6.35 43.8091 6.714C43.8091 6.94733 43.7391 7.13867 43.5991 7.288C43.4684 7.428 43.2957 7.498 43.0811 7.498C42.8664 7.498 42.6891 7.43267 42.5491 7.302C42.4184 7.162 42.3531 6.994 42.3531 6.798C42.3531 6.67667 42.3717 6.57867 42.4091 6.504C42.4464 6.42933 42.4651 6.35933 42.4651 6.294C42.4651 6.16333 42.3531 6.098 42.1291 6.098C41.8211 6.098 41.5084 6.24267 41.1911 6.532C40.8737 6.82133 40.5844 7.19467 40.3231 7.652C40.0711 8.10933 39.8611 8.62267 39.6931 9.192C39.5344 9.752 39.4551 10.312 39.4551 10.872C39.4551 11.32 39.5391 11.6747 39.7071 11.936C39.8844 12.188 40.1271 12.314 40.4351 12.314C40.6031 12.314 40.7757 12.2673 40.9531 12.174C41.1397 12.0807 41.3264 11.9547 41.5131 11.796C41.6997 11.628 41.8771 11.432 42.0451 11.208C42.2224 10.984 42.3811 10.7367 42.5211 10.466L43.0111 10.746ZM49.1628 11.138C48.3508 12.4727 47.3521 13.14 46.1668 13.14C45.5228 13.14 45.0281 12.944 44.6828 12.552C44.3374 12.1507 44.1648 11.586 44.1648 10.858C44.1648 10.214 44.2954 9.57 44.5568 8.926C44.8274 8.282 45.1774 7.70333 45.6068 7.19C46.0361 6.66733 46.5168 6.24733 47.0488 5.93C47.5808 5.60333 48.1128 5.44 48.6448 5.44C49.0928 5.44 49.4568 5.55667 49.7368 5.79C50.0261 6.014 50.1708 6.30333 50.1708 6.658C50.1708 6.98467 50.0494 7.32067 49.8068 7.666C49.5641 8.01133 49.2328 8.338 48.8128 8.646C48.4021 8.954 47.9168 9.234 47.3568 9.486C46.8061 9.738 46.2181 9.934 45.5928 10.074C45.5741 10.2047 45.5601 10.3353 45.5508 10.466C45.5414 10.5873 45.5368 10.7133 45.5368 10.844C45.5368 11.8613 45.8961 12.37 46.6148 12.37C46.9601 12.37 47.3148 12.2347 47.6788 11.964C48.0521 11.6933 48.3974 11.32 48.7148 10.844L49.1628 11.138ZM48.3648 6.098C48.1221 6.098 47.8701 6.19133 47.6088 6.378C47.3474 6.56467 47.0954 6.81667 46.8528 7.134C46.6194 7.442 46.4048 7.79667 46.2088 8.198C46.0128 8.59933 45.8541 9.01467 45.7328 9.444C46.1808 9.32267 46.5961 9.164 46.9788 8.968C47.3614 8.772 47.6881 8.55267 47.9588 8.31C48.2388 8.058 48.4581 7.79667 48.6168 7.526C48.7754 7.246 48.8548 6.966 48.8548 6.686C48.8548 6.294 48.6914 6.098 48.3648 6.098ZM53.2095 6.784L53.2515 6.812C53.5222 6.38267 53.8582 6.05133 54.2595 5.818C54.6702 5.57533 55.1042 5.454 55.5615 5.454C56.1308 5.454 56.5695 5.63133 56.8775 5.986C57.1855 6.34067 57.3395 6.826 57.3395 7.442C57.3395 7.88067 57.2742 8.32867 57.1435 8.786C57.0128 9.24333 56.8308 9.682 56.5975 10.102C56.3735 10.522 56.1075 10.9187 55.7995 11.292C55.4915 11.656 55.1602 11.978 54.8055 12.258C54.4602 12.5287 54.0915 12.7433 53.6995 12.902C53.3168 13.0607 52.9388 13.14 52.5655 13.14C52.0335 13.14 51.5948 12.9813 51.2495 12.664C50.9135 12.3373 50.7455 11.9173 50.7455 11.404C50.7455 11.1613 50.7968 10.8207 50.8995 10.382C51.0022 9.934 51.1515 9.402 51.3475 8.786L53.0415 3.326C53.0882 3.158 53.1348 2.99 53.1815 2.822C53.2282 2.64467 53.2515 2.514 53.2515 2.43C53.2515 2.10333 52.8922 1.94 52.1735 1.94L52.2995 1.52L54.9875 1.394L53.2095 6.784ZM52.7895 12.426C53.0042 12.426 53.2328 12.3513 53.4755 12.202C53.7182 12.0433 53.9562 11.8333 54.1895 11.572C54.4228 11.3107 54.6468 11.0073 54.8615 10.662C55.0762 10.3167 55.2628 9.95733 55.4215 9.584C55.5802 9.20133 55.7062 8.81867 55.7995 8.436C55.9022 8.044 55.9535 7.67533 55.9535 7.33C55.9535 7.00333 55.8788 6.73267 55.7295 6.518C55.5802 6.30333 55.3982 6.196 55.1835 6.196C54.9782 6.196 54.7542 6.27533 54.5115 6.434C54.2782 6.58333 54.0448 6.79333 53.8115 7.064C53.5875 7.32533 53.3682 7.62867 53.1535 7.974C52.9482 8.31 52.7615 8.66933 52.5935 9.052C52.4348 9.42533 52.3088 9.80333 52.2155 10.186C52.1222 10.5687 52.0755 10.9327 52.0755 11.278C52.0755 12.0433 52.3135 12.426 52.7895 12.426ZM60.45 13.14C60.1327 13.14 59.834 13.0793 59.554 12.958C59.2834 12.8273 59.0454 12.6407 58.84 12.398C58.6347 12.1553 58.4714 11.8613 58.35 11.516C58.2287 11.1613 58.168 10.7647 58.168 10.326C58.168 9.71933 58.28 9.122 58.504 8.534C58.7374 7.946 59.0407 7.42333 59.414 6.966C59.7874 6.50867 60.212 6.14 60.688 5.86C61.1734 5.58 61.6727 5.44 62.186 5.44C62.522 5.44 62.83 5.50533 63.11 5.636C63.3994 5.75733 63.642 5.93933 63.838 6.182C64.0434 6.41533 64.202 6.7 64.314 7.036C64.4354 7.36267 64.496 7.72667 64.496 8.128C64.496 8.716 64.3794 9.30867 64.146 9.906C63.9127 10.5033 63.6047 11.04 63.222 11.516C62.8487 11.992 62.4194 12.384 61.934 12.692C61.4487 12.9907 60.954 13.14 60.45 13.14ZM60.534 12.44C60.8514 12.44 61.164 12.2767 61.472 11.95C61.7894 11.6233 62.0694 11.2127 62.312 10.718C62.564 10.214 62.7647 9.668 62.914 9.08C63.0727 8.492 63.152 7.932 63.152 7.4C63.152 6.90533 63.0634 6.56467 62.886 6.378C62.718 6.19133 62.4847 6.098 62.186 6.098C61.9807 6.098 61.7707 6.17267 61.556 6.322C61.3507 6.462 61.1547 6.658 60.968 6.91C60.7814 7.162 60.604 7.45133 60.436 7.778C60.2774 8.10467 60.1374 8.45 60.016 8.814C59.8947 9.178 59.8014 9.55133 59.736 9.934C59.6707 10.3073 59.638 10.6667 59.638 11.012C59.638 11.5347 59.722 11.9033 59.89 12.118C60.058 12.3327 60.2727 12.44 60.534 12.44ZM67.7782 13.14C67.4608 13.14 67.1622 13.0793 66.8822 12.958C66.6115 12.8273 66.3735 12.6407 66.1682 12.398C65.9628 12.1553 65.7995 11.8613 65.6782 11.516C65.5568 11.1613 65.4962 10.7647 65.4962 10.326C65.4962 9.71933 65.6082 9.122 65.8322 8.534C66.0655 7.946 66.3688 7.42333 66.7422 6.966C67.1155 6.50867 67.5402 6.14 68.0162 5.86C68.5015 5.58 69.0008 5.44 69.5142 5.44C69.8502 5.44 70.1582 5.50533 70.4382 5.636C70.7275 5.75733 70.9702 5.93933 71.1662 6.182C71.3715 6.41533 71.5302 6.7 71.6422 7.036C71.7635 7.36267 71.8242 7.72667 71.8242 8.128C71.8242 8.716 71.7075 9.30867 71.4742 9.906C71.2408 10.5033 70.9328 11.04 70.5502 11.516C70.1768 11.992 69.7475 12.384 69.2622 12.692C68.7768 12.9907 68.2822 13.14 67.7782 13.14ZM67.8622 12.44C68.1795 12.44 68.4922 12.2767 68.8002 11.95C69.1175 11.6233 69.3975 11.2127 69.6402 10.718C69.8922 10.214 70.0928 9.668 70.2422 9.08C70.4008 8.492 70.4802 7.932 70.4802 7.4C70.4802 6.90533 70.3915 6.56467 70.2142 6.378C70.0462 6.19133 69.8128 6.098 69.5142 6.098C69.3088 6.098 69.0988 6.17267 68.8842 6.322C68.6788 6.462 68.4828 6.658 68.2962 6.91C68.1095 7.162 67.9322 7.45133 67.7642 7.778C67.6055 8.10467 67.4655 8.45 67.3442 8.814C67.2228 9.178 67.1295 9.55133 67.0642 9.934C66.9988 10.3073 66.9662 10.6667 66.9662 11.012C66.9662 11.5347 67.0502 11.9033 67.2182 12.118C67.3862 12.3327 67.6008 12.44 67.8622 12.44ZM77.4863 11.88C77.7569 11.88 78.1396 11.53 78.6343 10.83L78.9983 11.026C78.3263 12.4353 77.6309 13.14 76.9123 13.14C76.6883 13.14 76.5016 13.0607 76.3523 12.902C76.2123 12.7433 76.0536 12.4587 75.8763 12.048L74.9383 9.808L74.6303 9.948L73.7483 13H72.4743L75.1763 2.962C75.2416 2.71 75.2743 2.53733 75.2743 2.444C75.2743 2.248 75.1856 2.11733 75.0083 2.052C74.8309 1.97733 74.4809 1.94 73.9583 1.94L74.0983 1.52L76.8843 1.38L75.4283 6.77L75.4843 6.784C76.0256 5.87867 76.7116 5.426 77.5423 5.426C77.9809 5.426 78.3263 5.53333 78.5783 5.748C78.8303 5.95333 78.9563 6.23333 78.9563 6.588C78.9563 7.02667 78.7369 7.46533 78.2983 7.904C77.8689 8.34267 77.2669 8.73933 76.4923 9.094L76.1283 9.262L76.8423 11.11C77.0289 11.6233 77.2436 11.88 77.4863 11.88ZM74.7563 9.248C75.1576 9.108 75.5309 8.94467 75.8763 8.758C76.2216 8.57133 76.5156 8.37533 76.7583 8.17C77.0103 7.96467 77.2063 7.75933 77.3463 7.554C77.4863 7.33933 77.5563 7.13867 77.5563 6.952C77.5563 6.56933 77.3649 6.378 76.9823 6.378C76.7863 6.378 76.5809 6.45733 76.3663 6.616C76.1516 6.76533 75.9416 6.97067 75.7363 7.232C75.5309 7.49333 75.3396 7.80133 75.1623 8.156C74.9943 8.50133 74.8589 8.86533 74.7563 9.248Z" fill="white"/>
</svg>
