<svg width="91" height="17" viewBox="0 0 91 17" fill="none" xmlns="http://www.w3.org/2000/svg">
<path d="M27.136 10.648C27.024 11.0587 26.968 11.3853 26.968 11.628C26.968 11.9453 27.066 12.16 27.262 12.272C27.4673 12.384 27.794 12.44 28.242 12.44L28.074 13H23.608L23.762 12.44C24.042 12.44 24.28 12.4213 24.476 12.384C24.672 12.3373 24.84 12.2533 24.98 12.132C25.1293 12.0107 25.2553 11.8427 25.358 11.628C25.4607 11.4133 25.5587 11.1333 25.652 10.788L27.29 4.6C27.43 4.08667 27.5 3.704 27.5 3.452C27.5 3.16267 27.3927 2.98067 27.178 2.906C26.9727 2.822 26.618 2.78 26.114 2.78L26.268 2.22H30.818L30.664 2.78C30.356 2.78 30.0993 2.81267 29.894 2.878C29.6887 2.934 29.5113 3.046 29.362 3.214C29.2127 3.382 29.0773 3.61533 28.956 3.914C28.844 4.21267 28.7273 4.6 28.606 5.076L27.136 10.648ZM35.4734 6.168C35.2494 6.168 34.9928 6.28467 34.7034 6.518C34.4234 6.742 34.1341 7.04533 33.8354 7.428C33.5461 7.80133 33.2661 8.23067 32.9954 8.716C32.7248 9.20133 32.4961 9.696 32.3094 10.2L31.2734 13H30.0414L31.0774 9.794C31.2454 9.28067 31.3854 8.842 31.4974 8.478C31.6094 8.114 31.6981 7.81067 31.7634 7.568C31.8381 7.316 31.8894 7.11533 31.9174 6.966C31.9454 6.80733 31.9594 6.68133 31.9594 6.588C31.9594 6.336 31.8801 6.21 31.7214 6.21C31.6188 6.21 31.4974 6.27533 31.3574 6.406C31.2174 6.53667 31.0728 6.70933 30.9234 6.924C30.7834 7.12933 30.6481 7.36733 30.5174 7.638C30.3868 7.90867 30.2748 8.184 30.1814 8.464L29.7614 8.254C30.0881 7.29267 30.4521 6.58333 30.8534 6.126C31.2641 5.66867 31.7308 5.44 32.2534 5.44C32.5521 5.44 32.7621 5.524 32.8834 5.692C33.0141 5.86 33.0794 6.14467 33.0794 6.546C33.0794 7.022 33.0001 7.44667 32.8414 7.82L32.8834 7.862C33.3594 7.022 33.8401 6.41067 34.3254 6.028C34.8201 5.636 35.3568 5.44 35.9354 5.44C36.3461 5.44 36.6588 5.538 36.8734 5.734C37.0881 5.93 37.1954 6.21 37.1954 6.574C37.1954 6.69533 37.1814 6.83067 37.1534 6.98C37.1348 7.12933 37.0974 7.31133 37.0414 7.526C36.9854 7.73133 36.9061 7.97867 36.8034 8.268C36.7101 8.55733 36.5934 8.912 36.4534 9.332C36.2388 9.96667 36.0614 10.4987 35.9214 10.928C35.7814 11.3573 35.7114 11.6607 35.7114 11.838C35.7114 11.978 35.7581 12.048 35.8514 12.048C35.9821 12.048 36.1734 11.9407 36.4254 11.726C36.6774 11.5113 37.0181 11.166 37.4474 10.69L37.8114 10.886C37.6621 11.166 37.4661 11.4413 37.2234 11.712C36.9901 11.9733 36.7428 12.2113 36.4814 12.426C36.2294 12.6407 35.9774 12.8133 35.7254 12.944C35.4734 13.0747 35.2541 13.14 35.0674 13.14C34.8341 13.14 34.6474 13.0373 34.5074 12.832C34.3768 12.6267 34.3114 12.356 34.3114 12.02C34.3114 11.8893 34.3208 11.7587 34.3394 11.628C34.3674 11.488 34.4188 11.292 34.4934 11.04C34.5681 10.788 34.6754 10.452 34.8154 10.032C34.9648 9.60267 35.1654 9.038 35.4174 8.338C35.5014 8.09533 35.5714 7.89 35.6274 7.722C35.6834 7.554 35.7254 7.40933 35.7534 7.288C35.7908 7.15733 35.8141 7.04533 35.8234 6.952C35.8421 6.85867 35.8514 6.77 35.8514 6.686C35.8514 6.34067 35.7254 6.168 35.4734 6.168ZM39.3788 7.582C39.3788 7.274 39.4348 6.98933 39.5468 6.728C39.6681 6.46667 39.8314 6.24267 40.0368 6.056C40.2421 5.86 40.4848 5.71067 40.7648 5.608C41.0541 5.496 41.3668 5.44 41.7028 5.44C42.1508 5.44 42.5241 5.552 42.8228 5.776C43.1214 6 43.2708 6.28933 43.2708 6.644C43.2708 6.84 43.2148 6.994 43.1028 7.106C43.0001 7.218 42.8554 7.274 42.6688 7.274C42.4541 7.274 42.3001 7.21333 42.2068 7.092C42.1134 6.96133 42.0341 6.82133 41.9688 6.672C41.9034 6.51333 41.8334 6.36867 41.7588 6.238C41.6841 6.10733 41.5581 6.042 41.3808 6.042C41.1754 6.042 41.0028 6.13067 40.8628 6.308C40.7228 6.48533 40.6528 6.70467 40.6528 6.966C40.6528 7.274 40.7414 7.56333 40.9188 7.834C41.1054 8.09533 41.3108 8.37067 41.5348 8.66C41.7588 8.94933 41.9594 9.26667 42.1368 9.612C42.3234 9.95733 42.4168 10.3633 42.4168 10.83C42.4168 11.1473 42.3468 11.446 42.2068 11.726C42.0761 12.006 41.8941 12.2533 41.6608 12.468C41.4368 12.6733 41.1754 12.8367 40.8768 12.958C40.5781 13.0793 40.2701 13.14 39.9528 13.14C39.3928 13.14 38.9448 13.0187 38.6088 12.776C38.2821 12.5333 38.1188 12.216 38.1188 11.824C38.1188 11.5533 38.1794 11.3433 38.3008 11.194C38.4314 11.0353 38.6041 10.956 38.8188 10.956C39.2201 10.956 39.4488 11.2313 39.5048 11.782C39.5328 12.0807 39.5794 12.2813 39.6448 12.384C39.7194 12.4773 39.8641 12.524 40.0788 12.524C40.4148 12.524 40.6808 12.426 40.8768 12.23C41.0728 12.0247 41.1708 11.7447 41.1708 11.39C41.1708 11.0167 41.0774 10.6853 40.8908 10.396C40.7041 10.1067 40.4988 9.82667 40.2748 9.556C40.0508 9.276 39.8454 8.982 39.6588 8.674C39.4721 8.366 39.3788 8.002 39.3788 7.582ZM46.9228 6.742L45.7608 10.592C45.6021 11.096 45.5181 11.4787 45.5088 11.74C45.5088 11.824 45.5275 11.8987 45.5648 11.964C45.6115 12.0293 45.6861 12.062 45.7888 12.062C45.9568 12.062 46.1341 12.0013 46.3208 11.88C46.5075 11.7493 46.6848 11.6 46.8528 11.432C47.0301 11.2547 47.1841 11.0773 47.3148 10.9C47.4548 10.7133 47.5575 10.5687 47.6228 10.466L48.0288 10.704C47.8701 11.0213 47.6695 11.3293 47.4268 11.628C47.1841 11.9173 46.9275 12.174 46.6568 12.398C46.3861 12.622 46.1108 12.804 45.8308 12.944C45.5601 13.0747 45.3128 13.14 45.0888 13.14C44.7621 13.14 44.5241 13.07 44.3748 12.93C44.2348 12.79 44.1648 12.5567 44.1648 12.23C44.1648 12.0433 44.1975 11.7913 44.2628 11.474C44.3281 11.1567 44.4401 10.7227 44.5988 10.172L45.6348 6.742H44.4308L44.6128 6.098H45.8308L46.5588 3.69H47.8468L47.1188 6.098H48.6448L48.4488 6.742H46.9228ZM53.3941 6.168C53.0394 6.168 52.6708 6.33133 52.2881 6.658C51.9148 6.98467 51.5741 7.39533 51.2661 7.89C50.9581 8.37533 50.7061 8.90267 50.5101 9.472C50.3141 10.032 50.2161 10.5547 50.2161 11.04C50.2161 11.376 50.2861 11.6467 50.4261 11.852C50.5661 12.048 50.7574 12.146 51.0001 12.146C51.2148 12.146 51.4388 12.062 51.6721 11.894C51.9054 11.7167 52.1294 11.488 52.3441 11.208C52.5681 10.9187 52.7781 10.592 52.9741 10.228C53.1701 9.864 53.3428 9.49067 53.4921 9.108C53.6414 8.716 53.7581 8.33333 53.8421 7.96C53.9261 7.58667 53.9681 7.25067 53.9681 6.952C53.9681 6.70933 53.9168 6.518 53.8141 6.378C53.7114 6.238 53.5714 6.168 53.3941 6.168ZM54.8361 5.58H55.9981L55.2001 7.722C55.0694 8.07667 54.9388 8.45467 54.8081 8.856C54.6868 9.25733 54.5748 9.64467 54.4721 10.018C54.3788 10.3913 54.3041 10.732 54.2481 11.04C54.1921 11.348 54.1641 11.5767 54.1641 11.726C54.1641 11.9967 54.2528 12.132 54.4301 12.132C54.5608 12.132 54.7474 11.9967 54.9901 11.726C55.2421 11.4553 55.5221 11.1053 55.8301 10.676L56.1941 10.97C55.8021 11.6607 55.3774 12.1973 54.9201 12.58C54.4721 12.9533 54.0381 13.14 53.6181 13.14C53.4034 13.14 53.2354 13.0607 53.1141 12.902C53.0021 12.734 52.9461 12.4633 52.9461 12.09C52.9461 12.006 52.9461 11.908 52.9461 11.796C52.9554 11.684 52.9694 11.5347 52.9881 11.348L52.9321 11.334C52.7921 11.5953 52.6241 11.838 52.4281 12.062C52.2414 12.2767 52.0361 12.468 51.8121 12.636C51.5881 12.7947 51.3548 12.916 51.1121 13C50.8694 13.0933 50.6314 13.14 50.3981 13.14C49.9221 13.14 49.5488 12.9627 49.2781 12.608C49.0168 12.244 48.8861 11.7447 48.8861 11.11C48.8861 10.466 49.0214 9.808 49.2921 9.136C49.5628 8.464 49.9128 7.85733 50.3421 7.316C50.7714 6.76533 51.2474 6.31733 51.7701 5.972C52.2928 5.61733 52.8061 5.44 53.3101 5.44C53.6181 5.44 53.8701 5.51467 54.0661 5.664C54.2621 5.804 54.4208 6.03733 54.5421 6.364L54.8361 5.58ZM62.8205 14.022C62.8205 14.4233 62.7318 14.7827 62.5545 15.1C62.3865 15.4267 62.1391 15.702 61.8125 15.926C61.4951 16.1593 61.1078 16.3367 60.6505 16.458C60.1931 16.5793 59.6798 16.64 59.1105 16.64C58.5971 16.64 58.1305 16.5933 57.7105 16.5C57.2905 16.4067 56.9311 16.2713 56.6325 16.094C56.3245 15.9167 56.0911 15.7067 55.9325 15.464C55.7645 15.2307 55.6805 14.9647 55.6805 14.666C55.6805 14.2833 55.8065 13.966 56.0585 13.714C56.3011 13.462 56.6138 13.336 56.9965 13.336C57.1085 13.336 57.2158 13.35 57.3185 13.378C57.4211 13.406 57.5518 13.4573 57.7105 13.532C57.1878 13.7467 56.9265 14.1527 56.9265 14.75C56.9265 15.142 57.1225 15.45 57.5145 15.674C57.9158 15.898 58.4618 16.01 59.1525 16.01C59.5258 16.01 59.8711 15.968 60.1885 15.884C60.5058 15.8 60.7765 15.6927 61.0005 15.562C61.2338 15.4313 61.4111 15.282 61.5325 15.114C61.6631 14.9553 61.7285 14.7967 61.7285 14.638C61.7285 14.3767 61.5698 14.1387 61.2525 13.924C60.9445 13.7187 60.5058 13.5647 59.9365 13.462C58.9191 13.2847 58.1725 13.0793 57.6965 12.846C57.2205 12.6127 56.9825 12.286 56.9825 11.866C56.9825 11.5953 57.0991 11.3667 57.3325 11.18C57.5751 10.9933 58.0045 10.8067 58.6205 10.62L58.6485 10.564C57.9391 10.06 57.5845 9.41133 57.5845 8.618C57.5845 8.18867 57.6731 7.78267 57.8505 7.4C58.0278 7.008 58.2658 6.66733 58.5645 6.378C58.8725 6.07933 59.2271 5.846 59.6285 5.678C60.0391 5.51 60.4685 5.426 60.9165 5.426C61.6071 5.426 62.1858 5.678 62.6525 6.182C63.0911 5.68733 63.5158 5.44 63.9265 5.44C64.2251 5.44 64.4865 5.53333 64.7105 5.72C64.9345 5.89733 65.0465 6.10733 65.0465 6.35C65.0465 6.53667 64.9811 6.69533 64.8505 6.826C64.7291 6.94733 64.5751 7.008 64.3885 7.008C64.2485 7.008 64.1365 6.98 64.0525 6.924C63.9778 6.85867 63.9125 6.78867 63.8565 6.714C63.8005 6.63933 63.7351 6.574 63.6605 6.518C63.5951 6.45267 63.5018 6.42 63.3805 6.42C63.3151 6.42 63.2545 6.434 63.1985 6.462C63.1425 6.48067 63.0398 6.54133 62.8905 6.644C62.9371 6.77467 62.9698 6.90067 62.9885 7.022C63.0071 7.134 63.0165 7.27867 63.0165 7.456C63.0165 8.48267 62.7318 9.304 62.1625 9.92C61.5931 10.5267 60.8091 10.8673 59.8105 10.942C59.3625 10.9793 59.0405 11.0353 58.8445 11.11C58.6578 11.1847 58.5645 11.2967 58.5645 11.446C58.5645 11.642 58.6671 11.7913 58.8725 11.894C59.0871 11.9873 59.3531 12.0667 59.6705 12.132C59.9878 12.1973 60.3285 12.2627 60.6925 12.328C61.0565 12.3933 61.3971 12.4913 61.7145 12.622C62.0318 12.7433 62.2931 12.9113 62.4985 13.126C62.7131 13.35 62.8205 13.6487 62.8205 14.022ZM59.8805 10.326C60.1045 10.326 60.3238 10.2373 60.5385 10.06C60.7531 9.88267 60.9445 9.64933 61.1125 9.36C61.2898 9.06133 61.4298 8.72533 61.5325 8.352C61.6351 7.97867 61.6865 7.596 61.6865 7.204C61.6865 6.83067 61.6025 6.53667 61.4345 6.322C61.2665 6.098 61.0471 5.986 60.7765 5.986C60.5618 5.986 60.3425 6.084 60.1185 6.28C59.8945 6.46667 59.6891 6.70933 59.5025 7.008C59.3251 7.30667 59.1805 7.64733 59.0685 8.03C58.9565 8.40333 58.9005 8.772 58.9005 9.136C58.9005 9.49067 58.9891 9.78 59.1665 10.004C59.3438 10.2187 59.5818 10.326 59.8805 10.326ZM64.7217 7.526C64.8244 7.29267 64.9784 7.05467 65.1837 6.812C65.3984 6.56 65.6271 6.336 65.8697 6.14C66.1217 5.93467 66.3737 5.76667 66.6257 5.636C66.8777 5.50533 67.0971 5.44 67.2837 5.44C67.5077 5.44 67.6711 5.524 67.7737 5.692C67.8764 5.86 67.9277 6.13067 67.9277 6.504C67.9277 6.65333 67.9184 6.798 67.8997 6.938C67.8904 7.078 67.8671 7.24133 67.8297 7.428L67.8717 7.47C67.9837 7.19933 68.1424 6.93333 68.3477 6.672C68.5531 6.41067 68.7724 6.182 69.0057 5.986C69.2484 5.78067 69.4911 5.61733 69.7337 5.496C69.9857 5.36533 70.2191 5.3 70.4337 5.3C70.7044 5.3 70.9284 5.38867 71.1057 5.566C71.2924 5.734 71.3857 5.944 71.3857 6.196C71.3857 6.43867 71.3064 6.63933 71.1477 6.798C70.9984 6.95667 70.8024 7.036 70.5597 7.036C70.4104 7.036 70.2891 7.008 70.1957 6.952C70.1117 6.896 70.0371 6.84 69.9717 6.784C69.9064 6.71867 69.8457 6.658 69.7897 6.602C69.7337 6.546 69.6637 6.518 69.5797 6.518C69.4024 6.518 69.1971 6.63933 68.9637 6.882C68.7304 7.11533 68.4877 7.43733 68.2357 7.848C67.9837 8.25867 67.7317 8.73933 67.4797 9.29C67.2371 9.84067 67.0131 10.4333 66.8077 11.068L66.1777 13H64.8757L65.7857 10.102C65.9631 9.542 66.1077 9.08 66.2197 8.716C66.3411 8.34267 66.4344 8.03467 66.4997 7.792C66.5651 7.54 66.6071 7.344 66.6257 7.204C66.6537 7.064 66.6677 6.94267 66.6677 6.84C66.6677 6.63467 66.5977 6.532 66.4577 6.532C66.3644 6.532 66.2477 6.56933 66.1077 6.644C65.9771 6.71867 65.8464 6.812 65.7157 6.924C65.5851 7.036 65.4591 7.162 65.3377 7.302C65.2257 7.442 65.1417 7.57733 65.0857 7.708L64.7217 7.526ZM75.3238 6.168C74.9691 6.168 74.6004 6.33133 74.2178 6.658C73.8444 6.98467 73.5038 7.39533 73.1958 7.89C72.8878 8.37533 72.6358 8.90267 72.4398 9.472C72.2438 10.032 72.1458 10.5547 72.1458 11.04C72.1458 11.376 72.2158 11.6467 72.3558 11.852C72.4958 12.048 72.6871 12.146 72.9298 12.146C73.1444 12.146 73.3684 12.062 73.6018 11.894C73.8351 11.7167 74.0591 11.488 74.2738 11.208C74.4978 10.9187 74.7078 10.592 74.9038 10.228C75.0998 9.864 75.2724 9.49067 75.4218 9.108C75.5711 8.716 75.6878 8.33333 75.7718 7.96C75.8558 7.58667 75.8978 7.25067 75.8978 6.952C75.8978 6.70933 75.8464 6.518 75.7438 6.378C75.6411 6.238 75.5011 6.168 75.3238 6.168ZM76.7658 5.58H77.9278L77.1298 7.722C76.9991 8.07667 76.8684 8.45467 76.7378 8.856C76.6164 9.25733 76.5044 9.64467 76.4018 10.018C76.3084 10.3913 76.2338 10.732 76.1778 11.04C76.1218 11.348 76.0938 11.5767 76.0938 11.726C76.0938 11.9967 76.1824 12.132 76.3598 12.132C76.4904 12.132 76.6771 11.9967 76.9198 11.726C77.1718 11.4553 77.4518 11.1053 77.7598 10.676L78.1238 10.97C77.7318 11.6607 77.3071 12.1973 76.8498 12.58C76.4018 12.9533 75.9678 13.14 75.5478 13.14C75.3331 13.14 75.1651 13.0607 75.0438 12.902C74.9318 12.734 74.8758 12.4633 74.8758 12.09C74.8758 12.006 74.8758 11.908 74.8758 11.796C74.8851 11.684 74.8991 11.5347 74.9178 11.348L74.8618 11.334C74.7218 11.5953 74.5538 11.838 74.3578 12.062C74.1711 12.2767 73.9658 12.468 73.7418 12.636C73.5178 12.7947 73.2844 12.916 73.0418 13C72.7991 13.0933 72.5611 13.14 72.3278 13.14C71.8518 13.14 71.4784 12.9627 71.2078 12.608C70.9464 12.244 70.8158 11.7447 70.8158 11.11C70.8158 10.466 70.9511 9.808 71.2218 9.136C71.4924 8.464 71.8424 7.85733 72.2718 7.316C72.7011 6.76533 73.1771 6.31733 73.6998 5.972C74.2224 5.61733 74.7358 5.44 75.2398 5.44C75.5478 5.44 75.7998 5.51467 75.9958 5.664C76.1918 5.804 76.3504 6.03733 76.4718 6.364L76.7658 5.58ZM87.9422 8.338C88.0635 7.99267 88.1568 7.71733 88.2222 7.512C88.2968 7.30667 88.3528 7.148 88.3902 7.036C88.4275 6.91467 88.4508 6.82133 88.4602 6.756C88.4695 6.69067 88.4742 6.63 88.4742 6.574C88.4742 6.30333 88.3808 6.168 88.1942 6.168C87.9422 6.168 87.6435 6.34067 87.2982 6.686C86.9528 7.022 86.5795 7.512 86.1782 8.156C86.0382 8.38 85.9075 8.60867 85.7862 8.842C85.6648 9.066 85.5342 9.35067 85.3942 9.696C85.2542 10.032 85.0908 10.4613 84.9042 10.984C84.7175 11.5067 84.4795 12.1787 84.1902 13H82.8742L83.7982 10.186C83.9942 9.58867 84.1575 9.08933 84.2882 8.688C84.4188 8.27733 84.5215 7.93667 84.5962 7.666C84.6708 7.39533 84.7222 7.18067 84.7502 7.022C84.7875 6.86333 84.8062 6.73267 84.8062 6.63C84.8062 6.322 84.6895 6.168 84.4562 6.168C84.2695 6.168 84.0455 6.27533 83.7842 6.49C83.5228 6.70467 83.2568 6.98467 82.9862 7.33C82.7155 7.67533 82.4542 8.06733 82.2022 8.506C81.9595 8.93533 81.7542 9.374 81.5862 9.822L80.4102 13H79.1782L80.2142 9.794C80.3915 9.25267 80.5362 8.8 80.6482 8.436C80.7602 8.06267 80.8488 7.75933 80.9142 7.526C80.9795 7.28333 81.0262 7.092 81.0542 6.952C81.0822 6.812 81.0962 6.69533 81.0962 6.602C81.0962 6.34067 81.0168 6.21 80.8582 6.21C80.7555 6.21 80.6342 6.27067 80.4942 6.392C80.3635 6.51333 80.2282 6.68133 80.0882 6.896C79.9482 7.10133 79.8082 7.33933 79.6682 7.61C79.5375 7.88067 79.4208 8.16533 79.3182 8.464L78.8982 8.254C79.2248 7.29267 79.5888 6.58333 79.9902 6.126C80.4008 5.66867 80.8675 5.44 81.3902 5.44C81.6888 5.44 81.8988 5.524 82.0202 5.692C82.1508 5.86 82.2162 6.14 82.2162 6.532C82.2162 6.98 82.1368 7.40933 81.9782 7.82L82.0202 7.862C82.8882 6.24733 83.8075 5.44 84.7782 5.44C85.1422 5.44 85.4268 5.552 85.6322 5.776C85.8375 5.99067 85.9402 6.294 85.9402 6.686C85.9402 6.81667 85.9215 6.966 85.8842 7.134C85.8562 7.302 85.7955 7.54933 85.7022 7.876L85.7302 7.918C85.9915 7.47 86.2388 7.092 86.4722 6.784C86.7148 6.46667 86.9482 6.21 87.1722 6.014C87.3962 5.818 87.6202 5.67333 87.8442 5.58C88.0775 5.48667 88.3155 5.44 88.5582 5.44C88.9222 5.44 89.1928 5.538 89.3702 5.734C89.5568 5.93 89.6502 6.238 89.6502 6.658C89.6502 6.78867 89.6362 6.93333 89.6082 7.092C89.5802 7.24133 89.5382 7.42333 89.4822 7.638C89.4262 7.84333 89.3515 8.086 89.2582 8.366C89.1742 8.63667 89.0715 8.95867 88.9502 9.332C88.7915 9.808 88.6655 10.1907 88.5722 10.48C88.4788 10.76 88.4088 10.984 88.3622 11.152C88.3155 11.32 88.2828 11.446 88.2642 11.53C88.2548 11.614 88.2502 11.698 88.2502 11.782C88.2502 11.9593 88.2968 12.048 88.3902 12.048C88.5302 12.048 88.7402 11.9173 89.0202 11.656C89.3002 11.3853 89.6642 10.97 90.1122 10.41L90.4762 10.606C90.3175 10.914 90.1122 11.222 89.8602 11.53C89.6175 11.8287 89.3608 12.0993 89.0902 12.342C88.8195 12.5753 88.5488 12.7667 88.2782 12.916C88.0168 13.0653 87.7882 13.14 87.5922 13.14C87.3588 13.14 87.1722 13.042 87.0322 12.846C86.9015 12.6407 86.8362 12.37 86.8362 12.034C86.8362 11.922 86.8455 11.796 86.8642 11.656C86.8922 11.516 86.9435 11.3153 87.0182 11.054C87.1022 10.7927 87.2142 10.4473 87.3542 10.018C87.5035 9.58867 87.6995 9.02867 87.9422 8.338Z" fill="white"/>
<path d="M6.99812 4.40832C5.01056 4.40832 3.40651 6.01241 3.40651 8C3.40651 9.98759 5.01056 11.5917 6.99812 11.5917C8.98567 11.5917 10.5897 9.98759 10.5897 8C10.5897 6.01241 8.98567 4.40832 6.99812 4.40832ZM6.99812 10.3343C5.71277 10.3343 4.66383 9.28537 4.66383 8C4.66383 6.71463 5.71277 5.66567 6.99812 5.66567C8.28346 5.66567 9.3324 6.71463 9.3324 8C9.3324 9.28537 8.28346 10.3343 6.99812 10.3343ZM10.7368 3.42416C10.2728 3.42416 9.89802 3.79891 9.89802 4.26298C9.89802 4.72704 10.2728 5.10179 10.7368 5.10179C11.2009 5.10179 11.5756 4.72879 11.5756 4.26298C11.5758 4.15278 11.5542 4.04364 11.5121 3.94181C11.47 3.83998 11.4082 3.74745 11.3303 3.66953C11.2523 3.59161 11.1598 3.52983 11.058 3.48773C10.9562 3.44562 10.847 3.42402 10.7368 3.42416V3.42416ZM13.9992 8C13.9992 7.03335 14.008 6.07545 13.9537 5.11055C13.8994 3.98979 13.6437 2.99512 12.8242 2.17556C12.0029 1.35426 11.01 1.10034 9.88927 1.04605C8.92263 0.991765 7.96475 1.00052 6.99987 1.00052C6.03323 1.00052 5.07536 0.991765 4.11047 1.04605C2.98974 1.10034 1.99508 1.35601 1.17554 2.17556C0.354253 2.99687 0.100336 3.98979 0.0460508 5.11055C-0.00823491 6.0772 0.000520869 7.0351 0.000520869 8C0.000520869 8.9649 -0.00823491 9.92455 0.0460508 10.8895C0.100336 12.0102 0.356004 13.0049 1.17554 13.8244C1.99683 14.6457 2.98974 14.8997 4.11047 14.9539C5.07711 15.0082 6.03499 14.9995 6.99987 14.9995C7.9665 14.9995 8.92438 15.0082 9.88927 14.9539C11.01 14.8997 12.0047 14.644 12.8242 13.8244C13.6455 13.0031 13.8994 12.0102 13.9537 10.8895C14.0097 9.92455 13.9992 8.96665 13.9992 8V8ZM12.4582 12.1293C12.3304 12.448 12.1763 12.6862 11.9294 12.9313C11.6824 13.1782 11.446 13.3324 11.1273 13.4602C10.2062 13.8262 8.01904 13.7439 6.99812 13.7439C5.9772 13.7439 3.78826 13.8262 2.86715 13.4619C2.54845 13.3341 2.31029 13.18 2.06513 12.9331C1.81822 12.6862 1.66411 12.4498 1.53628 12.131C1.17204 11.2082 1.25434 9.02094 1.25434 8C1.25434 6.97906 1.17204 4.79008 1.53628 3.86896C1.66411 3.55024 1.81822 3.31208 2.06513 3.06692C2.31204 2.82175 2.54845 2.6659 2.86715 2.53806C3.78826 2.17381 5.9772 2.25612 6.99812 2.25612C8.01904 2.25612 10.208 2.17381 11.1291 2.53806C11.4478 2.6659 11.6859 2.82 11.9311 3.06692C12.178 3.31383 12.3321 3.55024 12.46 3.86896C12.8242 4.79008 12.7419 6.97906 12.7419 8C12.7419 9.02094 12.8242 11.2082 12.4582 12.1293Z" fill="white"/>
</svg>
