<svg width="24" height="24" viewBox="0 0 24 24" fill="none" xmlns="http://www.w3.org/2000/svg">
<path fill-rule="evenodd" clip-rule="evenodd" d="M16.032 3H7.967C5.22533 3.00276 3.00331 5.22433 3 7.966V16.032C3.0022 18.7744 5.22455 20.9972 7.967 21H16.032C18.7746 20.9972 20.9972 18.7746 21 16.032V7.966C20.9961 5.22417 18.7738 3.00275 16.032 3V3ZM19.403 16.033C19.4008 17.8934 17.8934 19.4012 16.033 19.404H7.967C6.10655 19.4012 4.5992 17.8934 4.597 16.033V7.967C4.5992 6.10671 6.10671 4.5992 7.967 4.597H16.032C17.8927 4.59865 19.4008 6.10632 19.403 7.967V16.033V16.033V16.033ZM12.003 7.362C10.1268 7.36079 8.43473 8.49003 7.71591 10.223C6.99709 11.956 7.39316 13.9514 8.71938 15.2785C10.0456 16.6056 12.0407 17.0029 13.7742 16.2852C15.5077 15.5675 16.638 13.8762 16.638 12C16.6358 9.43926 14.5607 7.36376 12 7.361L12.003 7.362ZM12.003 15.041C10.7729 15.041 9.66402 14.3 9.19339 13.1635C8.72276 12.027 8.98311 10.719 9.85304 9.84933C10.723 8.97969 12.0311 8.71977 13.1674 9.19077C14.3037 9.66177 15.0444 10.7709 15.044 12.001C15.0412 13.6802 13.6792 15.04 12 15.04L12.003 15.041ZM16.836 6.009C16.2784 6.00985 15.799 6.40438 15.691 6.95139C15.5829 7.49839 15.8762 8.0456 16.3915 8.25846C16.9069 8.47132 17.5008 8.29059 17.8102 7.82674C18.1197 7.3629 18.0585 6.74508 17.664 6.351C17.4432 6.13131 17.1445 6.00798 16.833 6.008L16.836 6.009Z" fill="#3C363B"/>
</svg>
