<svg width="481" height="76" viewBox="0 0 481 76" fill="none" xmlns="http://www.w3.org/2000/svg">
<path d="M450.319 8.07843C453.565 9.39329 454.585 11.4042 454.771 13.8019C454.956 16.0449 455.142 18.2106 455.42 20.4535C455.606 21.6911 455.977 22.9286 457.832 23.0833C459.687 23.2379 461.171 22.6192 462.098 21.227C463.118 19.5254 464.046 17.7465 465.159 16.0449C465.623 15.2715 466.086 14.4207 466.828 13.7246C468.22 12.4097 469.055 10.012 471.559 10.3214C474.341 10.6308 477.031 11.7136 479.628 12.7191C481.019 13.2605 481.112 14.498 480.277 15.5808C480.092 15.8129 479.814 16.0449 479.628 16.2769C476.753 19.5254 473.692 22.6965 471.095 26.0223C467.663 30.5083 464.231 35.0716 461.356 39.7897C458.388 44.6624 456.162 49.7671 453.565 54.7945C452.823 56.1867 452.174 57.6562 451.154 58.8164C448.185 62.2195 446.238 65.9321 444.383 69.7993C443.641 71.3462 442.342 72.8157 441.136 74.1306C439.745 75.6775 437.797 76.2962 435.664 75.6001C433.531 74.904 431.398 73.8212 431.305 71.5782C431.119 69.3352 440.209 58.6617 441.322 56.9601C446.794 48.7616 451.525 40.2537 456.255 31.7458C457.275 29.8896 457.368 29.4255 455.049 28.2653C451.71 26.6411 450.412 24.1661 450.226 21.227C449.948 17.2824 450.041 13.3379 449.948 9.39328C449.762 9.23859 450.041 8.85187 450.319 8.07843Z" fill="#6C4D41"/>
<path d="M295.795 12.4871C300.804 11.7137 305.442 11.0949 310.079 10.3215C314.253 9.62539 314.624 9.23866 314.995 5.83549C315.18 4.44329 315.088 2.97374 315.459 1.58154C315.551 0.962779 316.201 0.189332 316.757 0.0346423C317.406 -0.120047 318.612 0.266683 318.89 0.730752C320.282 2.58702 321.673 4.52064 322.786 6.5316C323.992 8.7746 323.806 8.77459 326.96 8.54256C328.722 8.46521 330.577 8.46522 332.339 8.61991C335.4 8.85194 336.884 7.76912 336.699 5.1394C336.699 4.90736 336.606 4.75267 336.606 4.52064C336.791 3.66985 336.977 2.8964 337.162 2.04561C338.275 2.27764 339.574 2.27764 340.501 2.81906C341.429 3.36047 342.078 4.36594 342.542 5.21673C343.84 7.9238 345.139 8.69725 348.849 8.54256C351.632 8.46521 354.414 8.15584 357.197 8.23318C360.721 8.31053 363.504 9.78008 365.173 12.3325C365.73 13.1832 365.915 14.5755 365.544 15.4262C364.988 16.7411 363.133 16.5864 361.741 16.4317C360.907 16.3544 360.165 15.8903 359.33 15.7356C355.342 14.8848 351.446 13.8793 347.365 13.3379C343.098 12.7965 341.614 13.8793 340.965 17.4372C340.409 20.531 340.223 23.6248 339.945 26.7959C339.852 27.8014 340.038 29.1163 338.554 29.2709C337.441 29.3483 335.864 28.9616 335.029 28.2655C332.803 26.4865 333.267 24.2435 334.009 22.0779C334.658 20.1443 335.493 18.2106 335.957 16.277C336.513 13.8793 335.678 13.1059 332.803 13.0286C330.67 12.9512 328.444 12.9512 326.311 13.1059C323.528 13.2606 322.693 13.9567 322.508 16.277C322.415 18.056 322.508 19.9122 322.415 21.6912C322.322 23.3154 322.137 25.017 319.911 25.6357C318.334 26.0998 316.664 24.9396 315.366 22.774C314.346 21.0724 313.975 19.3708 314.253 17.5145C314.809 14.2661 314.067 13.7247 310.079 14.4981C306.74 15.1942 303.401 15.4262 299.969 14.8848C298.114 14.7301 296.445 14.4208 295.795 12.4871Z" fill="#6C4D41"/>
<path d="M19.5823 12.487C21.9011 14.3433 22.2721 15.8902 21.9011 17.7464C20.9736 22.3097 22.7358 26.4863 25.3329 30.4309C26.2604 31.8231 27.7444 31.9778 29.1357 30.5083C31.4545 28.1106 33.495 25.4035 35.5355 22.8511C36.6485 21.5363 37.2978 19.9121 38.5035 18.6746C39.2456 17.9011 40.5441 17.205 41.7498 17.0503C44.1614 16.7409 45.9236 18.7519 44.8106 20.5308C43.6976 22.3097 42.1208 23.8566 40.9151 25.6356C38.4108 28.9614 35.9993 32.3645 33.5877 35.6903C32.4747 37.2372 31.3617 38.7841 30.2487 40.331C26.1676 45.8998 21.9938 51.4686 17.9128 57.0374C15.6867 60.1312 13.5535 63.3023 11.2347 66.3961C9.65792 68.5617 8.45216 68.7937 5.85512 67.4015C4.27835 66.6281 2.88708 65.6226 1.58857 64.6171C-0.544711 62.9156 -0.45196 61.446 1.40306 59.4351C1.95957 58.8163 2.42333 58.0429 3.07259 57.4241C3.53634 56.8827 11.1419 49.9217 13.2752 49.0709C15.8722 48.0654 16.1505 45.6678 17.82 44.0435C18.8403 43.0381 19.5823 41.8779 20.6026 40.9498C23.2923 38.5521 23.2923 37.0825 21.1591 34.2981C19.0258 31.5137 17.449 28.4199 17.82 24.9394C18.3765 21.1496 18.933 17.205 19.5823 12.487Z" fill="#6C4D41"/>
<path d="M231.982 17.9012C235.971 17.9012 237.919 19.9895 236.435 23.0833C233.559 29.1935 232.446 35.5357 231.055 41.878C230.684 43.5022 229.756 45.1265 229.2 46.7507C228.551 48.7617 228.087 50.85 227.438 52.9383C226.603 55.568 225.768 55.9547 222.707 55.0266C221.594 54.7172 220.481 54.2531 219.461 53.7117C216.586 52.0875 216.493 50.6179 218.255 48.1429C220.203 45.5132 221.687 42.5741 223.542 39.867C224.748 38.1655 225.49 36.6959 224.933 34.5303C224.377 32.442 224.655 30.199 226.325 28.188C227.159 27.2599 227.159 25.7903 227.252 24.4755C227.345 23.47 226.881 22.4645 227.067 21.459C227.53 19.0613 229.014 17.9785 231.982 17.9012Z" fill="#6C4D41"/>
<path d="M386.042 29.4255C382.703 29.4255 379.735 28.8067 378.251 26.0997C376.396 22.6965 374.819 19.216 373.242 15.7355C372.408 13.9566 372.779 12.1003 373.706 10.4761C375.19 7.76899 377.695 5.60335 380.663 3.97911C384.465 1.89081 392.071 3.05098 395.039 5.91273C397.451 8.23306 397.543 10.7081 395.317 13.0284C395.132 13.1831 394.946 13.3378 394.854 13.4925C392.442 17.2824 388.175 18.4425 383.352 18.8293C382.796 18.9066 382.147 18.9066 381.59 18.984C379.828 19.2933 379.364 19.9894 380.199 21.3816C380.848 22.4645 381.776 23.3926 382.61 24.3981C383.816 25.7903 384.929 27.1825 386.135 28.652C386.135 28.7294 386.042 29.0388 386.042 29.4255ZM382.054 14.4206C383.723 13.9566 385.578 13.5698 387.155 12.9511C388.732 12.255 388.825 11.0948 387.526 10.012C385.3 8.07838 380.292 8.61979 378.622 10.9401C377.88 11.9456 378.066 12.9511 379.271 13.5698C380.013 13.9566 381.034 14.1113 382.054 14.4206Z" fill="#6C4D41"/>
<path d="M435.015 13.6471C433.531 13.7245 432.511 13.8018 431.398 13.8018C427.316 13.8018 424.348 15.5034 421.751 17.9784C418.227 21.3042 417.207 25.2488 416.743 29.4254C416.65 30.5082 416.465 31.6684 415.908 32.6738C415.073 34.3754 413.775 34.6848 411.827 33.834C406.726 31.6684 404.778 24.63 408.395 20.9175C410.529 18.7519 412.013 16.5862 411.827 13.5698C411.642 11.1721 412.476 8.6971 412.847 5.99005C414.331 6.29943 414.981 7.61429 415.537 8.8518C416.836 11.7135 416.928 11.8682 420.453 10.5534C424.534 9.08383 428.429 9.23852 432.418 10.5534C433.902 11.0948 435.293 11.6362 435.015 13.6471Z" fill="#6C4D41"/>
<path d="M135.521 20.3763C137.005 20.1443 137.84 19.9896 138.675 19.8349C142.199 19.2161 145.26 19.9122 147.486 22.3099C150.269 25.4037 151.011 28.9615 149.712 32.5967C149.434 33.3702 148.321 34.221 147.301 34.6077C145.909 35.0717 145.167 33.9889 144.425 33.2155C142.756 31.5139 142.663 29.5803 143.219 27.492C144.054 24.7076 142.941 22.9287 139.973 21.8458C137.098 20.763 135.336 21.4591 134.501 24.0115C133.852 25.9451 133.388 27.9561 132.739 29.8897C132.368 31.0498 131.904 32.21 131.255 33.2928C130.234 35.0717 129.214 35.2264 127.359 33.9889C123.278 31.2819 123 29.0389 126.988 26.0998C128.843 24.7849 129.492 23.238 129.956 21.4591C130.791 18.056 131.904 14.6528 132.646 11.2497C132.924 9.85745 132.739 8.46525 132.831 6.99571C132.924 6.37695 133.11 5.68085 133.295 4.90741C135.892 5.21679 136.541 6.68633 136.634 8.15587C136.82 10.5536 136.541 12.9512 136.356 15.4263C136.17 16.8958 135.799 18.3653 135.521 20.3763Z" fill="#6C4D41"/>
<path d="M57.8884 40.2538C61.5057 43.0382 64.1955 41.2593 66.607 39.8671C70.0388 37.9334 71.3373 34.7623 71.2446 31.4365C71.1518 28.8068 69.0186 27.8786 66.236 29.1161C64.2882 29.9669 62.6187 31.2045 60.7637 32.0552C59.6507 32.5193 58.2594 32.906 57.0536 32.8287C54.9203 32.674 54.2711 31.2818 55.3841 29.7349C55.7551 29.1935 56.2189 28.7294 56.7754 28.3427C59.7434 26.1771 63.0825 24.5528 66.978 24.0114C70.6881 23.47 74.8619 25.4809 75.6039 28.6521C76.2532 31.2818 76.0676 34.0662 76.1604 36.7733C76.1604 37.16 75.9749 37.5467 75.6966 37.9334C72.3576 42.4194 67.9983 45.9773 61.7839 47.6015C59.1869 48.2976 56.2189 45.9773 56.5899 43.5023C56.6826 42.5741 57.2391 41.7233 57.8884 40.2538Z" fill="#6C4D41"/>
<path d="M93.7831 43.6569C97.2149 42.8835 97.6786 40.3311 98.8844 38.1655C99.9047 36.3092 99.7192 34.4529 98.9772 32.5967C98.4206 31.2045 97.9569 29.6576 97.6786 28.188C97.3076 26.3317 98.1424 24.8622 99.9047 23.702C101.76 22.3872 103.336 20.9176 105.099 19.6028C105.562 19.2934 106.768 18.984 106.861 19.1387C107.325 19.6027 107.696 20.3762 107.603 20.9176C107.51 21.459 106.861 21.9231 106.397 22.3098C105.841 22.8512 105.099 23.238 104.635 23.8567C102.502 26.3317 100.832 28.6521 102.965 32.0552C105.933 36.928 104.728 41.646 101.11 46.2093C99.0699 48.7617 97.4931 51.5461 94.0613 52.861C89.331 54.7172 85.3427 54.2532 83.5805 50.85C82.3747 48.4523 83.024 47.4468 86.0848 47.2148C86.5485 47.1375 93.0411 43.8116 93.7831 43.6569Z" fill="#6C4D41"/>
<path d="M237.455 14.4981C241.258 12.1777 244.689 11.0949 248.77 12.2551C253.593 13.6473 256.005 16.509 256.005 21.6911C256.005 22.8513 255.727 24.1661 255.077 25.249C252.017 30.0443 248.863 34.7623 242.185 35.8452C239.495 36.3092 237.455 35.3038 236.991 32.9834C236.806 32.0553 237.177 31.4365 238.197 31.0498C239.495 30.5857 240.887 30.1217 242.185 29.6576C246.637 27.956 249.42 24.0888 249.327 20.6856C249.234 17.5145 247.843 16.277 243.947 15.8129C242 15.5809 240.052 15.0395 237.455 14.4981Z" fill="#6C4D41"/>
<path d="M271.773 21.5363C272.886 23.1606 273.442 24.2434 274.184 25.1715C275.39 26.6411 276.318 26.7184 278.173 25.7903C281.233 24.2434 283.552 22.3098 283.274 19.0613C282.996 16.1222 281.048 14.498 277.523 14.1113C275.668 13.9566 273.813 13.8019 271.402 13.5699C276.781 10.3987 283.645 11.3269 286.52 15.2714C289.024 18.5972 290.787 22.2324 288.653 26.177C288.004 27.2598 286.891 28.3426 285.685 29.0387C283.274 30.4309 280.677 31.5138 278.173 32.7513C275.019 34.2982 272.329 33.6021 271.494 30.663C270.845 28.4973 270.845 26.2543 270.66 24.0887C270.66 23.4699 271.216 22.7738 271.773 21.5363Z" fill="#6C4D41"/>
<path d="M175.033 19.6028C175.868 19.8348 176.239 19.8348 176.332 19.9895C178.836 23.1606 180.598 26.4864 179.485 30.3537C178.465 33.9888 177.352 37.5467 176.332 41.1819C175.775 43.1155 174.569 43.8889 172.529 43.1155C170.952 42.4967 169.375 41.6459 168.17 40.5631C166.407 38.8615 166.593 38.0108 168.17 36.0771C168.726 35.381 169.19 34.5303 169.561 33.6795C171.045 30.3537 172.436 27.1052 173.827 23.7794C174.384 22.4645 174.662 21.1497 175.033 19.6028Z" fill="#6C4D41"/>
<path d="M174.291 4.21124C177.63 4.59797 179.856 6.45426 181.711 8.5426C182.546 9.3934 182.082 10.2442 181.062 10.863C179.207 12.0232 177.074 11.7138 175.682 10.2442C174.106 8.46525 173.642 6.37693 174.291 4.21124Z" fill="#6C4D41"/>
</svg>
