<svg width="171" height="39" viewBox="0 0 171 39" fill="none" xmlns="http://www.w3.org/2000/svg">
<path d="M1.12793 32.9328C2.56779 32.4208 3.94365 31.9409 5.03154 30.789C7.27131 28.4532 9.83105 26.4054 11.8788 23.8137C12.0068 23.6537 12.1028 23.4937 12.2628 23.2697C11.8149 22.4378 11.1429 21.7979 10.471 21.19C9.3511 20.1341 8.19922 19.1102 7.17532 17.9263C6.59938 17.2544 6.21542 16.3584 5.89545 15.5265C5.54349 14.5986 6.02344 14.0547 6.91935 14.4066C7.97524 14.8226 8.96714 15.3665 9.89505 15.9425C11.1109 16.7104 12.2308 17.5743 13.3827 18.3742C13.7347 18.5982 14.1506 18.6942 14.5346 18.8862C15.0785 19.1422 15.4945 19.0462 15.8464 18.5662C16.2944 17.9263 16.7744 17.2864 17.2223 16.6464C17.7663 15.8145 18.2782 14.9506 18.7901 14.0867C19.942 12.1349 20.9659 10.1191 21.6059 7.9433C21.7019 7.62333 21.7338 7.30337 21.7658 6.9514C21.7658 6.85541 21.7019 6.72742 21.6379 6.56744C21.3499 6.56744 21.0619 6.50345 20.8059 6.56744C18.3102 7.11139 15.8464 7.68733 13.3507 8.16728C12.5508 8.32726 11.6869 8.26327 10.8869 8.26327C10.215 8.26327 9.70307 7.87931 9.4151 7.27137C9.09513 6.59944 8.74316 5.92751 8.58318 5.19158C8.4232 4.35966 9.03113 3.75173 9.86305 3.9757C10.9509 4.26367 11.9108 4.07169 12.9347 3.81572C13.9906 3.55974 15.0785 3.43176 16.1344 3.17578C17.6383 2.82382 19.1101 2.37586 20.614 1.9919C22.2138 1.57595 23.6857 1.95991 25.0935 2.66384C26.2774 3.27177 26.8853 4.29567 26.8533 5.73552C26.8213 7.39936 26.4374 8.9032 25.4775 10.3111C24.4216 11.8469 23.5257 13.5107 22.5338 15.1106C21.4139 16.9024 20.294 18.7262 19.1741 20.518C18.7901 21.158 18.7901 21.3819 19.5261 21.7979C21.2859 22.8538 23.0777 23.8457 24.8055 24.9016C27.6852 26.6614 30.565 28.4532 33.4767 30.213C33.8926 30.469 34.3406 30.693 34.7885 30.853C35.6204 31.173 35.9404 31.7809 35.6204 32.6128C35.0445 34.1486 32.5488 35.4605 30.9809 35.0126C29.4771 34.5966 28.1012 33.9567 26.8853 32.9328C25.1255 31.4609 23.3337 29.9891 21.5099 28.6452C20.102 27.6213 18.5662 26.7254 17.0943 25.7975C16.5824 25.4775 16.0704 25.4455 15.5905 25.8615C15.1425 26.2454 14.6626 26.5974 14.3746 27.0774C13.5427 28.3572 12.4868 29.4131 11.3349 30.373C11.2069 30.469 11.0469 30.565 10.9509 30.693C9.15912 32.6448 6.95134 34.0847 4.80756 35.6205C3.81566 36.3564 3.30371 36.4524 2.5038 35.6205C1.67188 34.9486 0.615987 34.2446 1.12793 32.9328Z" fill="#6C4D41"/>
<path d="M106.685 6.82342C107.837 6.31147 108.765 5.83152 109.725 5.47955C112.637 4.42366 115.612 3.59174 118.78 3.68773C119.772 3.71973 120.796 3.62374 121.788 3.71973C122.652 3.78372 123.548 3.91171 124.348 4.16768C126.459 4.80762 127.579 6.40746 127.867 8.48725C128.123 10.3431 128.091 12.2309 128.187 14.1187C128.315 17.2544 127.867 20.39 127.355 23.4617C126.907 26.0535 126.587 28.6772 125.659 31.141C125.307 32.1009 124.731 32.9008 123.964 33.6047C123.26 34.2446 122.716 34.3086 121.916 33.8927C121.724 33.7967 121.564 33.6047 121.372 33.5727C120.252 33.4447 120.028 32.5488 119.868 31.6849C119.708 30.821 120.156 30.1811 120.7 29.5731C121.052 29.1892 121.34 28.7092 121.436 28.1973C122.044 25.7335 122.492 23.2058 123.164 20.742C124.092 17.3823 124.028 13.9587 123.9 10.535C123.9 10.1511 123.836 9.79911 123.772 9.41515C123.516 7.87931 122.78 7.20738 121.308 6.82342C117.66 5.86351 114.109 6.18348 110.557 7.30337C109.373 7.68733 108.189 8.07129 106.973 8.45525C106.365 8.64723 106.141 9.03119 105.981 9.60713C105.629 10.951 105.245 12.2629 104.766 13.5427C104.382 14.5666 103.966 15.5905 102.654 15.8145C102.142 15.9105 101.598 16.2625 101.182 15.6865C100.702 15.0466 100.158 14.4066 100.542 13.5427C100.67 13.2228 100.83 12.9348 101.022 12.6468C102.494 10.3751 103.358 7.84731 103.902 5.22358C104.062 4.45565 104.03 3.65574 104.094 2.85582C104.126 2.0239 104.318 1.79992 104.958 1.73593C105.789 1.67194 106.269 2.0239 106.333 2.79182C106.397 3.62374 106.429 4.45565 106.493 5.28757C106.589 5.70353 106.621 6.15148 106.685 6.82342Z" fill="#6C4D41"/>
<path d="M159.48 10.471C160.632 10.887 161.144 11.7509 161.272 12.8388C161.368 13.5427 161.4 14.2467 161.496 14.9506C161.656 16.1025 161.784 16.1985 162.968 16.0385C163.448 15.9745 163.927 15.7825 164.439 15.7185C165.335 15.6225 166.263 15.5265 167.159 15.5905C168.087 15.6545 168.951 16.4224 168.983 17.0624C169.047 17.7983 168.471 18.5342 167.511 18.8862C167.191 19.0142 166.871 19.1102 166.551 19.1102C165.111 19.0782 163.64 18.9822 162.2 18.9182C162.04 18.9182 161.88 18.9502 161.56 18.9822C161.432 20.1981 161.272 21.4139 161.112 22.8538C161.688 22.7898 162.104 22.7898 162.52 22.7258C164.183 22.4378 165.847 22.3738 167.511 22.7898C168.343 23.0138 168.919 23.6857 168.919 24.4856C168.919 25.0296 168.439 25.5735 167.639 25.8615C166.871 26.1175 166.135 26.2454 165.303 26.0855C164.311 25.8935 163.32 25.7655 162.328 25.7015C161.304 25.6375 161.016 25.9255 160.856 26.9494C160.44 29.4771 160.408 32.0049 160.504 34.5646C160.536 35.0765 160.504 35.5885 160.408 36.0684C160.152 37.1243 159.512 37.8283 158.424 38.1162C157.112 38.4362 156.408 38.1162 156.024 36.7404C155.64 35.3965 155.768 34.1486 155.992 32.8048C156.28 31.1729 156.376 29.5091 156.6 27.8453C156.728 26.9494 156.888 26.0535 157.048 25.1256C157.304 23.6857 157.656 22.2778 157.816 20.838C158.136 18.2143 158.36 15.5905 158.68 12.9988C158.808 12.1349 158.904 11.239 159.48 10.471Z" fill="#6C4D41"/>
<path d="M112.797 18.5982C112.797 18.8542 112.797 18.9182 112.797 18.9502C113.181 20.198 113.757 21.062 115.292 20.934C115.996 20.87 116.668 21.2539 117.052 22.0219C116.764 22.7578 116.156 23.1737 115.42 23.3657C114.941 23.4937 114.429 23.6217 113.949 23.5897C112.989 23.5577 112.477 23.9417 112.189 24.8376C111.933 25.5415 111.581 26.2134 111.325 26.9174C111.101 27.5573 111.229 27.8453 111.901 27.8453C113.277 27.8133 114.557 28.6132 115.996 28.1972C116.22 28.1332 116.668 28.3572 116.86 28.5812C117.372 29.2531 117.532 30.021 117.244 30.821C117.052 31.3329 116.732 31.6529 116.156 31.7169C114.973 31.8449 113.821 31.9089 112.701 31.4929C111.229 30.949 109.757 30.533 108.157 30.725C107.389 30.821 106.589 31.0129 105.853 31.2049C104.638 31.4929 103.454 31.8449 102.238 32.1328C101.438 32.3248 100.638 32.3568 100.094 31.5569C99.5181 30.725 99.7741 29.7971 100.19 29.0611C100.606 28.3252 101.31 27.7173 101.918 27.1093C102.27 26.7574 102.654 26.9814 102.846 27.3333C103.102 27.8133 103.294 28.3252 103.518 28.8052C107.421 28.9332 109.085 27.8773 109.565 24.3576C109.053 24.4216 108.573 24.3896 108.125 24.5176C107.357 24.7416 106.653 25.0935 105.917 25.3815C104.958 25.7335 104.542 25.5415 104.19 24.5816C104.062 24.2616 104.03 23.9417 103.966 23.6217C103.87 23.1417 103.838 22.6298 103.678 22.1818C103.358 21.2859 103.486 20.55 104.19 19.8781C104.414 19.6861 104.606 19.4621 104.862 19.3021C106.397 18.2782 107.165 16.8064 107.549 15.0786C107.549 15.0466 107.549 14.9826 107.581 14.9506C107.709 14.4706 107.741 13.8307 108.413 13.8947C109.053 13.9267 109.085 14.5346 109.149 15.0466C109.309 16.1984 109.501 16.3584 110.717 16.1984C111.549 16.0705 112.349 15.8785 113.149 15.6545C114.045 15.3985 114.941 15.2385 115.868 15.4945C116.348 15.6225 116.732 15.8465 116.796 16.3904C116.892 16.9664 116.7 17.5103 116.188 17.7983C115.74 18.0223 115.26 18.1502 114.781 18.2462C114.045 18.3742 113.437 18.4702 112.797 18.5982ZM104.51 22.9178C104.83 22.9498 105.022 23.0457 105.182 22.9818C106.525 22.5658 107.869 22.1498 109.213 21.7339C109.565 21.6059 109.917 21.4459 110.205 21.2219C110.749 20.838 111.005 19.8461 110.813 19.1741C110.589 18.4702 110.013 18.5982 109.469 18.5982C109.213 18.5982 108.957 18.5662 108.733 18.5342C108.221 18.4702 107.869 18.6942 107.613 19.1421C106.845 20.39 106.077 21.6059 104.83 22.4378C104.734 22.5338 104.67 22.6938 104.51 22.9178Z" fill="#6C4D41"/>
<path d="M92.9267 22.0859C93.7267 21.9259 93.7587 21.3819 93.9186 20.934C94.4946 19.2061 94.7506 17.4143 94.6546 15.6225C94.5266 13.7027 94.8466 11.8789 95.2305 10.0551C95.3265 9.57512 95.4545 9.06318 95.5185 8.58322C95.6465 7.65532 95.3265 7.14337 94.4306 6.8874C93.4707 6.59943 92.5108 6.69542 91.6149 7.11137C91.0709 7.33535 90.559 7.36735 90.079 7.01538C89.5351 6.63142 89.5671 6.08748 90.175 5.8955C92.0948 5.25556 94.0466 4.77561 96.0624 5.35155C97.8223 5.8635 98.5262 7.14337 98.0782 8.93519C97.9502 9.41514 97.7263 9.89509 97.6303 10.375C97.5023 11.3669 97.3103 12.3588 97.3743 13.3507C97.4383 14.7266 97.6303 16.1025 97.9182 17.4463C98.4622 19.9741 97.2463 21.8299 95.7105 23.5257C95.2625 24.0377 94.3986 24.1976 93.6947 24.4856C92.5108 24.9656 92.3508 25.0936 92.5748 26.3414C92.8948 28.0373 92.4468 29.7011 92.0948 31.3009C91.8069 32.6448 90.879 33.7647 89.6311 34.5006C88.8632 34.9486 88.2232 34.6286 88.1272 33.7647C88.0632 33.3167 88.0632 32.8368 88.0952 32.3888C88.3512 29.8611 88.6712 27.3333 88.8632 24.8056C89.0551 22.0859 89.2471 19.3981 89.2471 16.6784C89.2471 14.5986 88.9911 12.5188 88.8632 10.439C88.8312 9.92709 88.5752 9.22316 89.2471 9.03118C89.919 8.8392 90.367 9.47913 90.527 9.99108C90.9109 11.143 91.1989 12.3268 91.3909 13.5107C91.8389 16.1025 92.1908 18.6942 92.6068 21.2859C92.6708 21.4779 92.7988 21.7339 92.9267 22.0859ZM92.7988 23.0138C92.8628 22.9498 92.9267 22.9178 92.9267 22.8538C92.9267 22.7898 92.8308 22.7578 92.7988 22.6938C92.7348 22.7578 92.6708 22.8538 92.6068 22.9178C92.6708 22.9498 92.7348 22.9818 92.7988 23.0138Z" fill="#6C4D41"/>
<path d="M66.7533 15.2705C66.5293 15.8145 66.3054 16.8384 65.7614 17.6383C64.6415 19.2701 63.2017 20.55 61.5059 21.6699C59.778 22.8218 58.2422 24.2616 56.5783 25.5095C53.4747 27.8773 50.7869 30.661 48.0032 33.3807C46.9473 34.4046 45.7954 35.3005 44.7715 36.3244C44.0036 37.0603 43.2037 36.6764 42.3718 35.6525C41.7638 34.8846 41.9238 34.3406 42.7557 33.6367C44.0996 32.5168 45.3795 31.3329 46.7233 30.213C47.2993 29.7331 47.9712 29.3491 48.5152 28.8692C50.595 27.0453 52.6427 25.1895 54.7225 23.3977C55.6504 22.5978 56.6423 21.9259 57.6342 21.2219C58.2742 20.774 58.4982 20.23 58.1782 19.4941C57.8582 18.7262 58.0502 18.0543 58.4342 17.3503C59.0421 16.2624 59.522 15.1106 60.002 13.9587C60.226 13.4467 60.5459 13.1588 61.0579 12.9988C61.7618 12.7748 62.4658 12.5188 63.2017 12.2948C65.2175 11.6229 66.6893 12.7108 66.7533 15.2705ZM60.5779 18.5342C61.6018 18.5982 62.1138 18.1502 62.4658 17.7023C63.0737 16.9984 63.5856 16.1664 64.0336 15.3345C64.1616 15.1106 64.0016 14.5026 63.8096 14.3746C63.5856 14.2466 63.1377 14.4706 62.8177 14.5666C62.7217 14.5986 62.6257 14.7266 62.5617 14.8546C61.9218 16.0065 61.3139 17.1583 60.5779 18.5342Z" fill="#6C4D41"/>
<path d="M70.0169 24.8696C68.6411 24.8696 67.9692 23.6537 67.2652 22.6298C66.8173 22.0219 67.0092 21.254 67.5852 20.678C68.0971 20.1981 68.7051 19.7821 69.121 19.2062C69.825 18.2143 70.4329 17.1904 70.9768 16.1025C71.5848 14.8546 72.1287 13.5107 72.6407 12.1989C73.2166 10.727 73.3126 9.25517 72.4167 7.87931C72.2247 7.55934 71.9687 7.27137 71.6488 7.07939C70.2729 6.24747 68.8651 5.54354 67.2652 5.28757C66.8173 5.22357 66.3693 5.28757 65.8894 5.28757C64.7375 5.31956 63.5856 5.38356 62.1777 5.44755C63.0097 4.51965 63.8096 4.23167 64.6415 4.03969C66.6253 3.62374 68.6091 3.46375 70.6249 3.78372C71.2648 3.87971 71.9367 3.91171 72.6087 4.03969C74.4645 4.45565 75.7444 5.63953 76.5123 7.27137C77.3762 9.03119 77.7922 10.887 77.0562 12.8388C76.6083 14.0227 76.3203 15.2386 75.9363 16.4224C75.8084 16.7744 75.6804 17.1264 75.5204 17.4463C74.7205 18.9502 73.8885 20.422 73.0566 21.9259C72.5767 22.8218 72.0327 23.6537 71.0088 24.0377C70.6889 24.2296 70.4649 24.5176 70.0169 24.8696Z" fill="#6C4D41"/>
<path d="M48.7711 22.2458C47.4593 22.1819 45.8274 22.1819 44.4196 21.126C43.4917 20.454 43.0117 19.6541 43.2357 18.4702C43.6836 16.2305 44.0996 13.9587 44.4516 11.6869C44.6115 10.631 44.6115 9.54313 44.6115 8.45524C44.6115 7.20737 44.6115 7.14337 45.8594 6.79141C46.3394 6.66342 46.7873 6.40745 47.2353 6.18347C49.3471 5.19157 51.2669 6.27946 52.1628 7.8793C52.6107 8.64722 52.8987 9.57513 53.0267 10.471C53.3787 13.3827 53.2507 16.2944 52.8347 19.2062C52.7387 19.8141 52.5147 20.422 52.1948 20.966C51.4908 22.1179 51.0109 22.2778 48.7711 22.2458ZM46.5633 14.3746C46.0834 15.7825 46.3714 17.0944 46.6593 18.4062C46.7233 18.6302 47.1713 18.9822 47.3633 18.9182C47.9712 18.7582 48.8031 18.5982 49.1231 18.1183C49.763 17.1264 49.859 15.8785 49.795 14.6306C48.6751 14.5666 47.6832 14.4706 46.5633 14.3746ZM50.019 10.407C49.859 9.79911 49.731 9.19117 49.475 8.64722C49.0591 7.71932 48.5151 7.55933 47.5872 7.97529C47.2033 8.13527 46.8193 8.32725 46.4674 8.51924C46.0194 8.74321 45.7634 9.12717 45.8914 9.63912C46.1154 10.407 45.9554 11.335 46.7233 11.8789C46.8513 11.9749 47.1393 11.9749 47.3313 11.9109C47.9712 11.7829 48.6111 11.5909 49.2511 11.4309C49.795 11.3349 49.987 10.983 50.019 10.407Z" fill="#6C4D41"/>
<path d="M154.84 9.22317C154.68 9.63913 154.488 9.99109 154.392 10.3751C153.944 12.0709 153.561 13.7987 152.601 15.3026C151.961 16.2625 151.161 17.0624 149.849 16.9024C148.793 16.7744 148.281 15.8465 148.793 14.9186C148.985 14.5666 149.273 14.2467 149.497 13.8627C150.329 12.4228 151.289 11.015 151.929 9.51114C152.825 7.33536 153.337 5.06359 153.113 2.66384C153.081 2.37586 153.113 2.08789 153.113 1.83192C154.2 1.54395 154.936 1.86392 155.192 2.79182C155.352 3.43176 155.416 4.10369 155.384 4.77562C155.352 6.05549 155.224 7.33536 155.16 8.67923C156.632 8.77522 157.816 8.26327 158.968 7.71932C161.048 6.72742 163.16 5.86351 165.431 5.38356C165.783 5.31957 166.135 5.09559 166.455 4.9676C167.479 4.58364 168.535 4.61564 169.495 5.12759C170.487 5.63953 170.423 6.31147 169.623 7.04739C168.663 7.9753 167.479 8.07129 166.295 8.16728C163.352 8.45525 160.408 8.74322 157.592 9.73512C156.984 9.9591 156.376 9.9591 155.768 9.63913C155.512 9.47915 155.256 9.38316 154.84 9.22317Z" fill="#6C4D41"/>
<path d="M144.665 5.57554C144.569 6.02349 144.537 6.69543 144.313 7.23937C143.322 9.60713 142.33 12.0069 141.178 14.3427C140.698 15.3026 140.058 16.2305 139.418 17.0304C138.106 18.5982 136.698 20.1661 134.586 20.774C133.499 21.094 133.435 21.126 132.795 20.1341C132.059 19.0142 132.059 19.0142 133.147 18.2143C134.81 16.9664 136.378 15.5905 137.594 13.8627C138.49 12.6148 139.546 11.4949 140.41 10.2151C141.466 8.64723 142.33 7.01539 142.362 5.03159C142.362 3.9437 142.586 3.71973 143.258 3.71973C144.089 3.71973 144.601 4.26367 144.633 5.15958C144.665 5.25557 144.665 5.35156 144.665 5.57554Z" fill="#6C4D41"/>
<path d="M145.913 20.39C145.753 22.5018 145.657 24.6456 145.369 26.7574C145.209 28.0692 144.057 28.9332 142.714 28.9652C141.53 29.0291 140.762 28.1012 141.018 26.9174C141.626 24.0696 142.234 21.2219 142.81 18.3422C143.002 17.2863 143.066 16.1984 143.194 15.1106C143.258 14.6946 143.322 14.2786 143.418 13.8627C143.514 13.3507 143.673 12.8388 144.313 12.8068C144.953 12.7748 145.209 13.2867 145.337 13.7667C145.529 14.4066 145.657 15.0786 145.657 15.7185C145.689 17.2543 145.657 18.7902 145.657 20.358C145.785 20.39 145.849 20.39 145.913 20.39Z" fill="#6C4D41"/>
<path d="M82.1756 25.7015C82.0797 25.8935 81.8557 26.3414 81.5677 26.6934C80.0639 28.4852 78.56 30.245 77.0242 32.0049C76.3522 32.7728 75.6483 33.4447 74.6884 33.8287C73.9205 34.1486 73.3125 34.0847 72.9606 33.6367C72.4806 33.0928 72.4486 32.4848 72.8006 31.8769C73.2805 31.109 73.7605 30.309 74.3684 29.6371C76.1283 27.7493 77.9521 25.9255 79.7439 24.0377C80.1279 23.6217 80.5438 23.4297 81.0878 23.6537C81.6957 24.0057 82.1756 24.7096 82.1756 25.7015Z" fill="#6C4D41"/>
<path d="M60.674 26.5014C61.9858 27.4613 62.1458 28.7412 61.1539 29.7971C60.002 31.0769 58.7222 32.1968 57.8263 33.6687C57.4423 34.2766 56.8344 34.7886 56.2264 35.2365C55.3945 35.8765 54.7546 35.8125 54.1146 35.1725C53.3467 34.4046 53.2187 33.6687 53.9226 32.8368C55.3945 31.0769 56.8664 29.3491 58.7542 28.0053C59.3941 27.5573 60.002 27.0453 60.674 26.5014Z" fill="#6C4D41"/>
<path d="M61.8259 3.17577C61.6659 4.07168 61.5059 4.96759 61.3459 5.8635C61.2819 6.24746 61.1859 6.59943 61.1859 6.98339C61.1539 8.26326 60.9619 9.44714 60.194 10.535C60.034 10.727 60.098 11.111 60.034 11.3669C59.8741 11.9109 59.7461 12.4868 59.4581 12.9988C59.0421 13.7667 58.3062 14.0547 57.4423 13.9587C56.4824 13.8627 55.9385 12.9028 56.3864 12.0389C56.9623 10.951 57.6343 9.89509 58.1462 8.74321C59.0741 6.66342 59.97 4.55163 59.8741 2.18387C59.8421 1.70392 59.6181 1.12798 60.386 0.999992C60.9299 0.904002 61.6659 1.44795 61.7619 2.02389C61.8259 2.37585 61.7619 2.75981 61.7619 3.14378C61.7619 3.17577 61.7939 3.17577 61.8259 3.17577Z" fill="#6C4D41"/>
<path d="M69.857 29.0611C69.825 29.7651 69.377 30.437 68.8651 31.0449C68.1291 31.8449 67.3612 32.5808 66.5613 33.3487C65.9214 33.9567 65.3454 34.0206 64.8975 33.6367C64.3855 33.1887 64.2895 32.5488 64.7695 31.8129C65.3774 30.885 66.0813 29.9891 66.7533 29.0931C66.9772 28.8052 67.1692 28.4852 67.3932 28.1652C67.8732 27.3973 68.1611 27.2693 68.7691 27.4613C69.441 27.6533 69.857 28.2292 69.857 29.0611Z" fill="#6C4D41"/>
</svg>
