<svg width="48" height="47" viewBox="0 0 48 47" fill="none" xmlns="http://www.w3.org/2000/svg">
<path d="M47.3166 23.7497C47.3154 24.2818 47.3142 24.8298 47.3142 25.3945L47.3116 25.4388C47.1093 28.9397 46.9516 31.6695 46.2522 34.0497C45.5578 36.4125 44.3245 38.4399 41.9267 40.4875C37.4355 44.3228 29.7339 45.9923 23.2802 45.6194C20.0087 45.4303 16.6526 45.2329 13.6 44.5353C10.5517 43.8387 7.85767 42.6539 5.88232 40.5275C1.59582 35.9131 0.371616 29.6473 0.773579 22.6908C1.16773 15.8696 5.00621 11.0823 9.90184 6.90163C14.476 2.99551 19.0023 0.503964 25.3488 0.870681C28.5835 1.05759 32.0931 1.57067 35.2972 2.58266C38.5057 3.59602 41.3722 5.09833 43.3614 7.23968C47.3444 11.5274 47.3344 15.9418 47.3166 23.7497Z" stroke="#7492A7"/>
</svg>
